HIERARCHY
ROOT pelvis
{
  OFFSET 0 100 0
  CHANNELS 6 Xposition Yposition Zposition Zrotation Xrotation Yrotation
  JOINT pelvis_right_femur
  {
    OFFSET -10.78128 -3.44521 -0.5502486
    CHANNELS 3 Zrotation Xrotation Yrotation
    JOINT right_femur_tibia
    {
      OFFSET -0.8047443 -44.0398 -0.1307829
      CHANNELS 3 Zrotation Xrotation Yrotation
      JOINT right_tibia_foot
      {
        OFFSET 3.006224 -47.83518 -5
        CHANNELS 3 Zrotation Xrotation Yrotation
        End Site
        {
          OFFSET 0 -5 15
        }
      }
    }
  }
  JOINT pelvis_left_femur
  {
    OFFSET 10.78128 -3.44521 -0.5502486
    CHANNELS 3 Zrotation Xrotation Yrotation
    JOINT left_femur_tibia
    {
      OFFSET 0.8047443 -44.0398 -0.1307829
      CHANNELS 3 Zrotation Xrotation Yrotation
      JOINT left_tibia_foot
      {
        OFFSET -4.370144 -48.10324 -4.275266
        CHANNELS 3 Zrotation Xrotation Yrotation
        End Site
        {
          OFFSET 0 -5 15
        }
      }
    }
  }
  JOINT pelvis_spine1
  {
    OFFSET 0 6.468898 -3.129235
    CHANNELS 3 Zrotation Xrotation Yrotation
    JOINT spine1
    {
      OFFSET 0 23.15396 4.99043
      CHANNELS 3 Zrotation Xrotation Yrotation
      JOINT spine2
      {
        OFFSET 0 20.79997 -5.064912
        CHANNELS 3 Zrotation Xrotation Yrotation
        JOINT neck
        {
          OFFSET 0 14.38658 9.616178
          CHANNELS 3 Zrotation Xrotation Yrotation
          End Site
          {
            OFFSET 0 20 0
          }
        }
      }
      JOINT right_manubrium
      {
        OFFSET -5.722621 16.35077 3.967754
        CHANNELS 3 Zrotation Xrotation Yrotation
        JOINT right_clavicle
        {
          OFFSET -13.16364 1.694482 -4.693211
          CHANNELS 3 Zrotation Xrotation Yrotation
          JOINT right_humerus
          {
            OFFSET -28.5034 -0.3100689 -2.792744
            CHANNELS 3 Zrotation Xrotation Yrotation
            JOINT right_radius
            {
              OFFSET -25.15693 0.02248979 -1.271978
              CHANNELS 3 Zrotation Xrotation Yrotation
              End Site
              {
                OFFSET -15 0 0
              }
            }
          }
        }
      }
      JOINT left_manubrium
      {
        OFFSET 5.722621 16.35077 3.967754
        CHANNELS 3 Zrotation Xrotation Yrotation
        JOINT left_clavicle
        {
          OFFSET 13.16364 1.694482 -4.693211
          CHANNELS 3 Zrotation Xrotation Yrotation
          JOINT left_humerus
          {
            OFFSET 29.39168 -1.063119 -2.237045
            CHANNELS 3 Zrotation Xrotation Yrotation
            JOINT left_radius
            {
              OFFSET 24.59957 -0.9528479 0.9047498
              CHANNELS 3 Zrotation Xrotation Yrotation
              End Site
              {
                OFFSET 15 -0 -0
              }
            }
          }
        }
      }
    }
  }
}
MOTION
Frames: 19
Frame Time: 0.0416666666667
0 103.5113 0 0.8498898 -1.21101 0.0489461 3.318474 -15.11011 8.488094 -0 39.63686 -0 -7.104454 -15.61006 -2.455072 -7.467088 5.198034 -23.54912 -0 4.602485 -0 8.698504 -17.30698 27.02792 -2.079907 -2.060829 4.324082 2.165939 10.18887 -6.916242 0.6659076 21.99174 7.158752 4.772827 -23.82738 7.519077 6.337087 -18.61622 11.93392 84.75531 38.11065 -17.23436 -0 0 13.25855 -10.85592 9.048463 6.699437 6.385931 -21.63022 -2.807238 -92.95854 22.50326 21.84739 0 0 -15.35299 12.00299 16.8283 -0.03265613
0.4369653 103.6499 0.5958921 0.8496514 -1.155463 0.09830067 3.447909 -16.45705 8.686977 -0 40.51854 -0 -7.159456 -15.3347 -2.649227 -7.554549 6.602359 -23.94651 -0 5.25754 -0 8.845526 -17.5961 27.0839 -2.007213 -2.302153 4.159175 2.394326 10.3195 -7.25726 0.5736811 21.87332 7.233271 4.88253 -24.42114 7.561899 6.449845 -18.704 12.01376 85.48631 38.51336 -18.4017 -0 0 12.79085 -9.89518 8.825323 6.218575 6.485567 -22.17467 -2.873434 -93.03012 22.61149 21.95746 0 0 -16.20911 12.75402 17.29908 -0.6963078
0.6825865 103.4612 2.031591 0.5557542 -0.7646783 0.2627477 3.8454 -22.98247 6.851864 -0 33.75123 -0 -7.276891 -12.31543 -3.146683 -6.725458 12.01915 -22.0269 -0 4.792965 -0 7.508347 -19.46949 24.42654 -2.089904 -1.987658 4.003827 2.259535 10.10513 -7.17232 0.7106895 22.05181 7.184117 4.702747 -23.69411 7.607062 6.218713 -18.03552 11.81764 85.69153 37.85148 -18.48275 -0 0 12.19125 -10.83901 9.122374 6.445164 6.509611 -21.96203 -2.926661 -91.98789 22.75273 20.22336 0 0 -16.72301 11.95073 16.66724 0.01984845
0.8247004 102.9857 3.987238 0.347252 -0.46979 0.4728366 4.027503 -26.31663 5.637867 -0 28.48673 -0 -7.442976 -10.90725 -3.300343 -6.210418 14.49701 -20.71278 -0 4.169298 -0 6.662169 -20.40418 22.78853 -2.099742 -1.929998 3.865749 2.28424 10.05131 -7.266049 0.7414743 22.08998 7.18864 4.655587 -23.57759 7.647446 6.149829 -17.74967 11.75459 86.07721 37.6808 -18.97956 -0 0 11.72378 -10.91761 9.182732 6.366836 6.55633 -22.06974 -2.977675 -91.51586 22.86961 19.43369 0 0 -17.31563 11.8342 16.54433 0.1358243
0.8857502 102.1817 6.633852 0.1428557 -0.3435612 0.7247046 4.01855 -28.7751 4.150319 -0 22.74022 -0 -7.470912 -9.276718 -3.405974 -5.673116 16.22146 -18.87536 -0 3.799345 -0 5.403002 -21.04949 20.82674 -2.119793 -1.826224 3.644135 2.312381 9.963501 -7.401921 0.7950576 22.16102 7.192456 4.57832 -23.35393 7.707282 6.031657 -17.27507 11.65002 86.67288 37.37458 -19.73067 -0 0 10.96807 -11.09734 9.284606 6.262107 6.635378 -22.23158 -3.06305 -90.7323 23.00643 18.11502 0 0 -18.23266 11.65944 16.32448 0.2907154
0.902951 101.1421 10.00491 0.01164958 -0.5101348 1.020537 3.832171 -29.94783 2.779985 -0 18.51334 -0 -7.271905 -7.510812 -3.543877 -5.270326 17.12858 -16.93683 -0 4.383179 -0 3.926768 -21.22839 18.93595 -2.129913 -1.760538 3.427637 2.362086 9.900494 -7.55998 0.8323392 22.21209 7.204284 4.522781 -23.21888 7.764356 5.939931 -16.86055 11.56669 87.27925 37.1391 -20.5212 -0 0 10.24014 -11.1524 9.349279 6.115429 6.718319 -22.4379 -3.146855 -90.04102 23.11956 16.94361 0 0 -19.14072 11.59715 16.18184 0.3414086
0.9017939 99.97507 14.13428 -0.06334398 -0.926572 1.356487 3.581854 -30.22116 1.544592 -0 15.48737 -0 -6.905553 -5.59545 -3.752516 -4.956117 17.52343 -14.91119 -0 6.126886 -0 2.259379 -20.99318 17.07733 -2.142316 -1.685049 3.203267 2.406777 9.833236 -7.715833 0.8740648 22.27047 7.21403 4.462402 -23.05666 7.821493 5.839252 -16.42086 11.47817 87.8941 36.86917 -21.31326 -0 0 9.482478 -11.2424 9.421906 5.976093 6.805073 -22.64407 -3.235693 -89.30974 23.20717 15.69694 0 0 -20.0682 11.52797 16.01877 0.3903441
0.9005313 98.80349 18.99225 -0.09147787 -1.527893 1.716779 3.380506 -29.7689 0.5590836 -0 13.54238 -0 -6.458251 -3.729237 -4.027881 -4.708482 17.49021 -12.95178 -0 9.091193 -0 0.5533555 -20.36465 15.37853 -2.155903 -1.60704 3.001689 2.438166 9.76954 -7.845815 0.9159089 22.32989 7.219375 4.403611 -22.88154 7.87075 5.740669 -16.01208 11.39512 88.43105 36.59484 -21.99282 -0 0 8.797558 -11.36681 9.495771 5.867606 6.8834 -22.81826 -3.318002 -88.63276 23.25599 14.53533 0 0 -20.8869 11.45338 15.85116 0.4375812
0.9094369 97.75039 24.50923 -0.0841991 -2.26812 2.073468 3.307808 -28.67688 -0.1162354 -0 12.45743 -0 -5.999602 -2.068247 -4.35355 -4.492674 17.03181 -11.13296 -0 13.34288 -0 -1.098896 -19.34702 13.91345 -2.17366 -1.515067 2.846398 2.43872 9.705647 -7.919529 0.9620481 22.39449 7.213903 4.341158 -22.66303 7.906387 5.63961 -15.65423 11.31719 88.81274 36.30399 -22.44439 -0 0 8.258486 -11.58603 9.58327 5.830631 6.941114 -22.91414 -3.386195 -88.0458 23.25948 13.52332 0 0 -21.49356 11.32375 15.65581 0.5297456
0.9305354 96.93929 30.57147 -0.04976457 -3.113932 2.387026 3.415855 -26.94184 -0.4212254 -0 12.12887 -0 -5.587936 -0.7730715 -4.704003 -4.28105 16.08777 -9.536817 -0 18.93813 -0 -2.608557 -17.93473 12.77303 -2.196084 -1.408495 2.767092 2.395458 9.644806 -7.908828 1.011857 22.46207 7.193012 4.276234 -22.39609 7.92105 5.539734 -15.39147 11.25036 88.95492 36.01034 -22.5496 -0 0 7.96199 -11.92777 9.686008 5.898576 6.964831 -22.89104 -3.430108 -87.62121 23.21364 12.79029 0 0 -21.76371 11.11558 15.43141 0.6906982
0.9568755 96.48702 37.01834 0.002138978 -4.030902 2.607217 3.727715 -24.5102 -0.3118865 -0 12.48387 -0 -5.280074 -0.01629515 -5.04085 -4.048535 14.55277 -8.248469 -0 25.84427 -0 -3.888445 -16.13122 12.05466 -2.22365 -1.286016 2.790413 2.296203 9.589506 -7.788103 1.065289 22.531 7.152061 4.209074 -22.07394 7.908248 5.442675 -15.26264 11.19935 88.78562 35.72043 -22.20404 -0 0 7.994511 -12.42074 9.805847 6.102976 6.942096 -22.71174 -3.441011 -87.42026 23.11743 12.44887 0 0 -21.58708 10.80402 15.17427 0.9459124
0.9739392 96.4845 43.64685 0.05760443 -4.967445 2.677403 4.222405 -21.32793 0.2107883 -0 13.40531 -0 -5.130026 0.03161886 -5.309198 -3.774027 12.30692 -7.344077 -0 33.76531 -0 -4.854368 -13.98472 11.84359 -2.255791 -1.150482 2.935261 2.134656 9.54359 -7.541986 1.120862 22.59812 7.08842 4.141771 -21.70027 7.863313 5.351182 -15.30065 11.16898 88.26195 35.43893 -21.34333 -0 0 8.418416 -13.07361 9.939167 6.462008 6.864349 -22.35501 -3.412697 -87.49219 22.9704 12.5903 0 0 -20.88792 10.38165 14.88821 1.304575
0.9660158 96.96403 50.23903 0.09815442 -5.847125 2.544704 4.820349 -17.39247 1.058619 -0 14.6362 -0 -5.171343 -0.7409942 -5.440843 -3.439652 9.254567 -6.844556 -0 41.9608 -0 -5.448444 -11.6207 12.167 -2.291223 -1.00687 3.204515 1.912474 9.510118 -7.171496 1.176781 22.66054 7.002168 4.076673 -21.28524 7.785417 5.266651 -15.51712 11.16163 87.39133 35.15942 -19.97114 -0 0 9.244343 -13.87512 10.07872 6.974024 6.730322 -21.82416 -3.344419 -87.85061 22.7708 13.24067 0 0 -19.65867 9.858788 14.5806 1.758371
0.9278059 97.8652 56.61612 0.1056001 -6.575773 2.175832 5.391913 -12.79902 2.036959 -0 15.73877 -0 -5.389868 -2.310042 -5.367441 -3.025591 5.373617 -6.665256 -0 49.19401 -0 -5.665397 -9.251809 12.9495 -2.327964 -0.8620694 3.579767 1.641326 9.490876 -6.698603 1.231046 22.71635 6.897003 4.016281 -20.8457 7.67872 5.188875 -15.89404 11.17619 86.24366 34.86696 -18.17839 -0 0 10.41397 -14.78958 10.21429 7.611663 6.548745 -21.15377 -3.242726 -88.46113 22.51541 14.33768 0 0 -17.98036 9.268307 14.26303 2.275913
0.8751946 99.02374 62.69725 0.07119613 -7.066939 1.572025 5.802682 -7.74756 2.887708 -0 16.18889 -0 -5.710794 -4.480405 -5.039171 -2.501272 0.7514006 -6.611843 -0 53.99212 -0 -5.557938 -7.138777 14.01423 -2.3638 -0.7227275 4.02546 1.339838 9.485923 -6.160817 1.282169 22.76532 6.779219 3.962281 -20.39994 7.551382 5.115515 -16.38703 11.20802 84.93487 34.54441 -16.12246 -0 0 11.81294 -15.76704 10.3363 8.328733 6.336428 -20.40117 -3.120362 -89.24714 22.20252 15.74302 0 0 -16.00415 8.656518 13.94808 2.811236
0.8455729 100.2016 68.52043 0.003096444 -7.274857 0.773225 5.970451 -2.499895 3.391379 -0 15.61691 -0 -6.020527 -6.940299 -4.441928 -1.828431 -4.409177 -6.455855 -0 55.19562 -0 -5.211584 -5.508583 15.15 -2.396835 -0.5932673 4.503577 1.026311 9.494183 -5.596341 1.329589 22.80862 6.655054 3.914975 -19.9616 7.412183 5.042779 -16.94496 11.25106 83.58224 34.17981 -13.96566 -0 0 13.31824 -16.76203 10.43913 9.078606 6.111271 -19.62392 -2.991365 -90.1215 21.83448 17.30154 0 0 -13.89018 8.065054 13.64548 3.322273
0.8853253 101.1499 74.20657 -0.0743965 -7.215301 -0.1516993 5.886748 2.673663 3.461407 -0 14.05514 -0 -6.209982 -9.36335 -3.610074 -0.9897521 -9.802201 -6.047496 -0 52.46189 -0 -4.712449 -4.481366 16.19825 -2.425722 -0.4750767 4.987228 0.7126196 9.514207 -5.031236 1.373747 22.84774 6.528329 3.873063 -19.53643 7.267525 4.966254 -17.52954 11.30013 82.26699 33.76673 -11.8212 -0 0 14.84239 -17.7481 10.52227 9.830288 5.885501 -18.8605 -2.866276 -91.0181 21.41757 18.89839 0 0 -11.753 7.515674 13.35917 3.787286
1.033213 101.6774 79.89331 -0.1297601 -6.96497 -1.121326 5.589521 7.50852 3.166646 -0 12.01853 -0 -6.205251 -11.46695 -2.632885 -0.03233328 -15.02925 -5.386372 -0 46.40045 -0 -4.136742 -4.053307 17.09022 -2.449334 -0.367674 5.461119 0.4048378 9.544642 -4.480055 1.415672 22.88383 6.400539 3.834044 -19.12503 7.121469 4.881344 -18.11769 11.35144 81.03609 33.30174 -9.754466 -0 0 16.3353 -18.71454 10.58865 10.56765 5.665257 -18.13121 -2.751786 -91.89569 20.96152 20.46481 0 0 -9.661414 7.01176 13.08857 4.204375
1.309407 101.7017 85.68172 -0.1357108 -6.645511 -2.055501 5.120097 11.73371 2.687301 -0 10.38274 -0 -5.973952 -13.00875 -1.65029 0.9020496 -19.62112 -4.622488 -0 38.36174 -0 -3.561072 -4.126065 17.8235 -2.466255 -0.2708176 5.91071 0.1091838 9.584348 -3.957308 1.456324 22.91754 6.273106 3.795119 -18.7291 6.978241 4.78346 -18.68797 11.40133 79.93256 32.78636 -7.828452 -0 0 17.74956 -19.64962 10.64229 11.27483 5.45607 -17.45548 -2.654417 -92.71625 20.48187 21.93872 0 0 -7.68342 6.553879 12.83325 4.575735
